{"title":"A$AP Rocky Ft. Skrillex &amp; Birdy Nam Nam - Wild For The Night","uid":8832125,"size":111296575,"categoryP":"video","categoryS":"music_videos","magnet":"?xt=urn:btih:df521f5f4f81297e517496b25c85a08ca0568e5b&amp;dn=A%24AP+Rocky+Ft.+Skrillex+%26amp%3B+Birdy+Nam+Nam+-+Wild+For+The+Night&amp;tr=udp%3A%2F%2Ftracker.openbittorrent.com%3A80&amp;tr=udp%3A%2F%2Fopen.demonii.com%3A1337&amp;tr=udp%3A%2F%2Ftracker.coppersurfer.tk%3A6969&amp;tr=udp%3A%2F%2Fexodus.desync.com%3A6969","seeders":4,"leechers":0,"uploader":"Sbyky","files":-1,"time":1377013627,"description":"[IMG]http://yuq.me/users/18/139/hf2PlQId8p.png[/IMG]\n\nGeneral\nComplete name                            : A$AP Rocky Ft. Skrillex &amp; Birdy Nam Nam - Wild For The Night [Explicit] 720p [Sbyky].mp4\nFormat                                   : MPEG-4\nFormat profile                           : Base Media / Version 2\nCodec ID                                 : mp42\nFile size                                : 106 MiB\nDuration                                 : 5mn 51s\nOverall bit rate mode                    : Variable\nOverall bit rate                         : 2 535 Kbps\nEncoded date                             : UTC 2013-04-08 02:47:03\nTagged date                              : UTC 2013-04-08 02:47:03\n\nVideo\nID                                       : 1\nFormat                                   : AVC\nFormat/Info                              : Advanced Video Codec\nFormat profile                           : &lt;a class=&quot;__cf_email__&quot; href=&quot;/cdn-cgi/l/email-protection&quot; data-cfemail=&quot;f1b9989699b1bdc2dfc0&quot;&gt;[email&amp;#160;protected]&lt;/a&gt;&lt;script cf-hash='f9e31' type=&quot;text/javascript&quot;&gt;\n/* &lt;![CDATA[ */!function(){try{var t=&quot;currentScript&quot;in document?document.currentScript:function(){for(var t=document.getElementsByTagName(&quot;script&quot;),e=t.length;e--;)if(t[e].getAttribute(&quot;cf-hash&quot;))return t[e]}();if(t&amp;&amp;t.previousSibling){var e,r,n,i,c=t.previousSibling,a=c.getAttribute(&quot;data-cfemail&quot;);if(a){for(e=&quot;&quot;,r=parseInt(a.substr(0,2),16),n=2;a.length-n;n+=2)i=parseInt(a.substr(n,2),16)^r,e+=String.fromCharCode(i);e=document.createTextNode(e),c.parentNode.replaceChild(e,c)}}}catch(u){}}();/* ]]&gt; */&lt;/script&gt;\nFormat settings, CABAC                   : Yes\nFormat settings, ReFrames                : 1 frame\nCodec ID                                 : avc1\nCodec ID/Info                            : Advanced Video Coding\nDuration                                 : 5mn 51s\nBit rate                                 : 2 341 Kbps\nMaximum bit rate                         : 6 345 Kbps\nWidth                                    : 1 280 pixels\nHeight                                   : 720 pixels\nDisplay aspect ratio                     : 16:9\nFrame rate mode                          : Constant\nFrame rate                               : 23.976 fps\nColor space                              : YUV\nChroma subsampling                       : 4:2:0\nBit depth                                : 8 bits\nScan type                                : Progressive\nBits/(Pixel*Frame)                       : 0.106\nStream size                              : 98.0 MiB (92%)\nTagged date                              : UTC 2013-04-08 02:47:11\n\nAudio\nID                                       : 2\nFormat                                   : AAC\nFormat/Info                              : Advanced Audio Codec\nFormat profile                           : LC\nCodec ID                                 : 40\nDuration                                 : 5mn 51s\nBit rate mode                            : Variable\nBit rate                                 : 192 Kbps\nMaximum bit rate                         : 201 Kbps\nChannel(s)                               : 2 channels\nChannel positions                        : Front: L R\nSampling rate                            : 44.1 KHz\nCompression mode                         : Lossy\nStream size                              : 8.04 MiB (8%)\nTitle                                    : IsoMedia File Produced by Google, 5-11-2011\nEncoded date                             : UTC 2013-04-08 02:47:08\nTagged date                              : UTC 2013-04-08 02:47:11\n\nShared By Sbyky\n[IMG]http://yuq.me/users/18/139/0aq32UMZvX.gif[/IMG]\n[IMG]http://yuq.me/users/18/139/bQg62viaEG.gif[/IMG]","torrent":{"xt":"urn:btih:df521f5f4f81297e517496b25c85a08ca0568e5b","amp;dn":"A%24AP+Rocky+Ft.+Skrillex+%26amp%3B+Birdy+Nam+Nam+-+Wild+For+The+Night","amp;tr":["udp%3A%2F%2Ftracker.openbittorrent.com%3A80","udp%3A%2F%2Fopen.demonii.com%3A1337","udp%3A%2F%2Ftracker.coppersurfer.tk%3A6969","udp%3A%2F%2Fexodus.desync.com%3A6969"],"infoHash":"df521f5f4f81297e517496b25c85a08ca0568e5b","infoHashBuffer":{"type":"Buffer","data":[223,82,31,95,79,129,41,126,81,116,150,178,92,133,160,140,160,86,142,91]},"announce":[],"urlList":[]}}